<svg xmlns="http://www.w3.org/2000/svg" width="28" height="28" viewBox="0 0 28 28">
    <path fill="#B6BFCB" fill-rule="nonzero" d="M16 24.819c5.12-.94 9-5.427 9-10.819 0-6.075-4.925-11-11-11S3 7.925 3 14c0 2.923 1.14 5.58 3 7.55V21a5 5 0 0 1 10 0v3.819zM14 25v-4a3 3 0 0 0-6 0v2.221A10.949 10.949 0 0 0 14 25zm13-11c0 7.18-5.82 13-13 13S1 21.18 1 14 6.82 1 14 1s13 5.82 13 13zm-9.5 1a.5.5 0 1 1 0-1h4a.5.5 0 1 1 0 1h-4zm0 3a.5.5 0 1 1 0-1h2a.5.5 0 1 1 0 1h-2zm0-6a.5.5 0 1 1 0-1h4a.5.5 0 1 1 0 1h-4zM13 11a2 2 0 1 0-4 0 2 2 0 0 0 4 0zm2 0a4 4 0 1 1-8 0 4 4 0 0 1 8 0z"/>
</svg>
