<svg id="Layer_1" data-name="Layer 1" xmlns="http://www.w3.org/2000/svg" viewBox="0 0 442 202"><defs><style>.cls-1{fill:#bfc2c4;}.cls-2{fill:#fff;}.cls-3{fill:#2d9fff;}.cls-4{fill:#333b40;}</style></defs><title>yoti_logos_RGB</title><path class="cls-1" d="M158.63,101.28a41,41,0,0,1,41-41V10.14H9.72v182H199.63V142.28A41,41,0,0,1,158.63,101.28Z"/><circle class="cls-2" cx="199.63" cy="101.28" r="41"/><path class="cls-3" d="M199.63,10.14V60.28a41,41,0,1,1,0,82v49.86H432.28v-182H199.63Z"/><path class="cls-4" d="M345.38,71.54h-32.5v77h-20v-77h-32.5v-20h85v20Zm35.11-20h-20v97h20v-97ZM144.89,63.66L130.2,50.09l-33,35.71-33-35.71L49.53,63.66l37.68,40.79v44.09h20V104.46ZM442,0.14v202H0V0.14H442ZM230.63,101.28a31,31,0,1,0-31,31A31,31,0,0,0,230.63,101.28ZM19.72,182.14H189.63V151.29a51,51,0,0,1,0-100V20.14H19.72v162Zm402.56-162H209.63V51.27a51,51,0,0,1,0,100v30.85H422.28v-162Z"/></svg>