<svg xmlns="http://www.w3.org/2000/svg" width="28" height="28" viewBox="0 0 28 28">
    <path fill="#B6BFCB" fill-rule="nonzero" d="M16.341 17.412l4.243-1.414 5.386 5.387-.707.707-2.12 2.121a6 6 0 0 1-8.486 0l-9.9-9.9a6 6 0 0 1 0-8.485L7.586 3l5.387 5.387-1.415 4.242 4.783 4.783zm-.54 2.289L9.27 13.17l1.414-4.243-3.098-3.099-1.414 1.415a4 4 0 0 0 0 5.656l9.899 9.9a4 4 0 0 0 5.657 0l1.414-1.414-3.098-3.099-4.243 1.415zm8.404-9.482a.5.5 0 1 1-.924.383 9.967 9.967 0 0 0-5.412-5.412.5.5 0 1 1 .382-.924 10.966 10.966 0 0 1 5.954 5.953zM16.72 7.961a.5.5 0 1 1 .382-.923 7.976 7.976 0 0 1 4.33 4.33.5.5 0 1 1-.924.382 6.976 6.976 0 0 0-3.788-3.789z"/>
</svg>
